<svg width="200px" height="200px" viewBox="0 0 200 200" xmlns="http://www.w3.org/2000/svg">
  <circle cx="100" cy="100" r="100" fill="#f0f0f0"/>
  <path d="M100 190C46.654 190 10 153.346 10 100S46.654 10 100 10s90 36.654 90 90-36.654 90-90 90zm0-176.036C52.708 13.964 13.964 52.708 13.964 100S52.708 186.036 100 186.036 186.036 147.292 186.036 100 147.292 13.964 100 13.964z" fill="#d3d3d3"/>
  <circle cx="100" cy="100" r="40" fill="#ffffff"/>
  <circle cx="100" cy="100" r="20" fill="#d3d3d3"/>
  <path d="M100 60C77.91 60 60 77.91 60 100s17.91 40 40 40 40-17.91 40-40S122.09 60 100 60zm0 73.036C81.123 133.036 66.964 118.877 66.964 100S81.123 66.964 100 66.964 133.036 81.123 133.036 100 118.877 133.036 100 133.036z" fill="#d3d3d3"/>
  <text x="100" y="100" font-size="20" font-family="Arial" fill="#a9a9a9" text-anchor="middle" dy=".3em">Image Not Available</text>
</svg>
